<?xml version="1.0" encoding="UTF-8" standalone="no"?>
<!-- Created with Inkscape (http://www.inkscape.org/) -->

<svg
   xmlns:dc="http://purl.org/dc/elements/1.1/"
   xmlns:cc="http://creativecommons.org/ns#"
   xmlns:rdf="http://www.w3.org/1999/02/22-rdf-syntax-ns#"
   xmlns:svg="http://www.w3.org/2000/svg"
   xmlns="http://www.w3.org/2000/svg"
   xmlns:xlink="http://www.w3.org/1999/xlink"
   version="1.1"
   width="150"
   height="150"
   viewBox="0 0 150 150"
   id="Layer_1"
   xml:space="preserve"><metadata
   id="metadata8009"><rdf:RDF><cc:Work
       rdf:about=""><dc:format>image/svg+xml</dc:format><dc:type
         rdf:resource="http://purl.org/dc/dcmitype/StillImage" /><dc:title></dc:title></cc:Work></rdf:RDF></metadata><defs
   id="defs8007"><linearGradient
     x1="0"
     y1="74.743637"
     x2="150.00764"
     y2="74.743637"
     id="linearGradient4037"
     xlink:href="#linearGradient4033"
     gradientUnits="userSpaceOnUse" /><linearGradient
     id="linearGradient4033"><stop
       id="stop4035"
       style="stop-color:#01528e;stop-opacity:1"
       offset="0" /></linearGradient><linearGradient
     x1="0"
     y1="74.743637"
     x2="150.00764"
     y2="74.743637"
     id="linearGradient8040"
     xlink:href="#linearGradient4033"
     gradientUnits="userSpaceOnUse"
     gradientTransform="translate(0.41990985,0.25636264)" /></defs>
<path
   d="M 150.42755,75 A 75.003822,74.751289 0 1 1 0.41990985,75 75.003822,74.751289 0 1 1 150.42755,75 z"
   id="path3263"
   style="fill:url(#linearGradient8040);fill-opacity:1;fill-rule:evenodd;stroke:none" /><path
   d="M 113.49617,40.089661 H 39.469932 c -6.457982,0 -11.711457,5.253475 -11.711457,11.709701 v 43.888992 c 0,6.456236 5.253475,11.707946 11.711457,11.707946 h 74.026238 c 6.45798,0 11.71146,-5.25171 11.71146,-11.707946 V 51.799362 c 0,-6.456226 -5.25348,-11.709701 -11.71146,-11.709701 z m -74.026238,3.511681 h 74.026238 c 4.52129,0 8.19978,3.678486 8.19978,8.19802 H 31.270156 c 0,-4.519534 3.678486,-8.19802 8.199776,-8.19802 z M 113.49617,103.88462 H 39.469932 c -4.52129,0 -8.199776,-3.67674 -8.199776,-8.196266 V 64.076199 h 90.425794 v 31.610395 c 0,4.521286 -3.67849,8.198026 -8.19978,8.198026 z"
   id="path8003"
   style="fill:none;stroke:#ffffff;stroke-width:1.5;stroke-miterlimit:4;stroke-dasharray:none" />
</svg>