<?xml version="1.0" encoding="UTF-8" standalone="no"?>
<!-- Created with Inkscape (http://www.inkscape.org/) -->

<svg
   xmlns:dc="http://purl.org/dc/elements/1.1/"
   xmlns:cc="http://creativecommons.org/ns#"
   xmlns:rdf="http://www.w3.org/1999/02/22-rdf-syntax-ns#"
   xmlns:svg="http://www.w3.org/2000/svg"
   xmlns="http://www.w3.org/2000/svg"
   version="1.1"
   width="150"
   height="150"
   id="svg5664">
  <defs
     id="defs5666" />
  <metadata
     id="metadata5669">
    <rdf:RDF>
      <cc:Work
         rdf:about="">
        <dc:format>image/svg+xml</dc:format>
        <dc:type
           rdf:resource="http://purl.org/dc/dcmitype/StillImage" />
        <dc:title></dc:title>
      </cc:Work>
    </rdf:RDF>
  </metadata>
  <g
     transform="matrix(0.98737409,0,0,0.99161038,1.2627421,-893.52706)"
     id="layer1">
    <path
       d="m 150.00764,74.743637 a 75.003822,74.751289 0 1 1 -150.00764,0 75.003822,74.751289 0 1 1 150.00764,0 z"
       transform="translate(0,902.36218)"
       id="path3263"
       style="fill:#ffffff;fill-opacity:1;fill-rule:evenodd;stroke:#000000;stroke-width:0.9995048;stroke-miterlimit:4;stroke-dasharray:none" />
    <path
       d="m 74.604467,932.77741 c -18.47764,0 -33.741815,11.32559 -36.17712,26.03739 l 1.965079,0 c 2.642936,-1.38409 6.050875,-2.22066 9.766448,-2.22066 3.715573,0 7.103861,0.83657 9.746796,2.22066 l 1.316604,0 c 2.609586,-1.98858 6.480335,-3.3134 10.847242,-3.47823 l 0,20.30938 0.341384,0.1227 2.079772,1.35971 0.113795,0.10391 0,-21.85649 c 4.082436,0.27196 7.688759,1.55638 10.159464,3.43902 l 1.257651,0 c 2.792003,-2.12762 7.028587,-3.4979 11.770831,-3.4979 4.742237,0 8.978817,1.37028 11.770837,3.4979 l 1.21834,0 C 108.34629,944.103 93.082113,932.77741 74.604467,932.77741 z"
       id="path5672"
       style="fill:none;stroke:#000000;stroke-width:1.51593244;stroke-miterlimit:4;stroke-dasharray:none" />
    <path
       d="m 66.791032,962.28443 c -2.666696,0 -4.834094,2.3713 -4.834094,5.28609 0,2.91478 2.167398,5.26637 4.834094,5.26637 2.666696,0 4.814448,-2.35159 4.814448,-5.26637 0,-2.91479 -2.147752,-5.28609 -4.814448,-5.28609 z m -6.504413,13.2839 c -3.434294,0.5476 -1.70999,19.1622 -1.061144,22.2642 l 1.611365,0.6879 c 2.117254,6.95217 0.233424,19.63127 2.67251,19.63127 l 6.858127,0.06 c 2.689109,1.3453 0.227207,-11.5511 1.591719,-19.65087 l 1.70962,-1.0021 c 1.857598,-1.9571 3.611421,-21.3345 -1.316606,-21.8124 l -11.711876,-0.1572 c -0.121745,-0.021 -0.242932,-0.038 -0.353715,-0.02 z"
       id="path5756"
       style="fill:none;stroke:#000000;stroke-width:1.51593244;stroke-linecap:butt;stroke-linejoin:miter;stroke-miterlimit:4;stroke-opacity:1;stroke-dasharray:none" />
    <path
       d="m 48.902764,981.44283 c -1.643955,0 -2.980102,1.4619 -2.980102,3.2587 0,1.797 1.336147,3.2467 2.980102,3.2467 1.64395,0 2.967985,-1.4497 2.967985,-3.2467 0,-1.7968 -1.324035,-3.2587 -2.967985,-3.2587 z m -4.009812,8.1893 c -2.117157,0.3375 -1.054167,11.81277 -0.654169,13.72517 l 0.993365,0.4241 c 1.305237,4.286 0.143901,12.1021 1.647537,12.1021 l 4.227867,0.037 c 1.657769,0.8295 0.140067,-7.1208 0.981251,-12.1141 l 1.053939,-0.6178 c 1.145165,-1.2065 2.22635,-13.15227 -0.811653,-13.44667 l -7.220082,-0.098 c -0.07504,-0.013 -0.14976,-0.022 -0.218055,-0.013 z"
       id="path5756-8"
       style="fill:none;stroke:#000000;stroke-width:1.51593244;stroke-linecap:butt;stroke-linejoin:miter;stroke-miterlimit:4;stroke-opacity:1;stroke-dasharray:none" />
    <path
       d="m 86.829315,967.2926 c -2.405066,0 -4.359824,2.13857 -4.359824,4.76746 0,2.62877 1.954758,4.74967 4.359824,4.74967 2.405062,0 4.342089,-2.1209 4.342089,-4.74967 0,-2.62889 -1.937027,-4.76746 -4.342089,-4.76746 z m -5.866265,11.98073 c -1.925591,0.4936 -0.932316,13.6295 -0.798231,16.4275 l 1.929687,1.2555 c 1.909529,6.27007 -0.424694,20.72237 1.775091,20.72237 l 6.185273,0.053 c 2.425281,1.2134 0.204916,-13.9115 1.435554,-21.21627 l 2.018286,-0.4278 c 0.40815,-1.7648 1.950203,-16.224 -1.66383,-16.6549 l -10.562819,-0.1421 c -0.109794,-0.019 -0.219089,-0.034 -0.319011,-0.019 z"
       id="path5756-2"
       style="fill:none;stroke:#000000;stroke-width:1.51593244;stroke-linecap:butt;stroke-linejoin:miter;stroke-miterlimit:4;stroke-opacity:1;stroke-dasharray:none" />
    <path
       d="m 102.18013,980.62343 c -1.66773,0 -3.023213,1.4831 -3.023213,3.306 0,1.8228 1.355483,3.2936 3.023213,3.2936 1.66775,0 3.01093,-1.4708 3.01093,-3.2936 0,-1.8229 -1.34318,-3.306 -3.01093,-3.306 z m -4.067817,8.3079 c -1.75625,-1.087 -1.35176,9.4429 -0.98125,11.22437 l 1.64296,0.43 c 1.324127,4.3478 -0.17163,14.9769 1.353777,14.9769 l 4.28903,0.038 c 1.68175,0.8414 0.14209,-9.765 0.99545,-14.8304 l 1.3868,-0.78567 c -0.0138,-2.1783 0.85577,-8.7378 -1.14101,-10.9415 l -7.324547,-0.098 c -0.0761,-0.014 -0.15193,-0.023 -0.22121,-0.014 z"
       id="path5756-4"
       style="fill:none;stroke:#000000;stroke-width:1.51593244;stroke-linecap:butt;stroke-linejoin:miter;stroke-miterlimit:4;stroke-opacity:1;stroke-dasharray:none" />
  </g>
</svg>
